# xmcd
#
# Track frame offsets: 
#        150
#        13467
#        27082
#        40310
#        55852
#        67992
#        81750
#        97865
#        111255
#        125055
#
# Disc length: 1847 seconds
#
# Revision: 0
# Processed by: cddbd v1.5.1PL0 Copyright (c) Steve Scherf et al.
# Submitted via: ExactAudioCopy v0.90b3
#
DISCID=8007350a
DTITLE=Larry Gatlin and The Gatlin Brothers - Alive and Well...Livin' In T
DTITLE=he Land Of Dreams...
DYEAR=1988
DGENRE=Country
TTITLE0=Alive And Well
TTITLE1=This Heart
TTITLE2=Mannequin
TTITLE3=Chop Wood And Carry Water
TTITLE4=The One That Got Away
TTITLE5=Love Of A Lifetime
TTITLE6=Standing By
TTITLE7=Not Just Another Pretty Face
TTITLE8=Power Of Love
TTITLE9=God Knows (It Would Be You)
EXTD=
EXTT0=
EXTT1=
EXTT2=
EXTT3=
EXTT4=
EXTT5=
EXTT6=
EXTT7=
EXTT8=
EXTT9=
PLAYORDER=
